<svg id="Calque_1" data-name="Calque 1" xmlns="http://www.w3.org/2000/svg" viewBox="0 0 85.04 85.04"><defs><style>.cls-1{fill:#0090d4;}.cls-2{fill:#fff;}</style></defs><path class="cls-1" d="M0,0V66.09S0,85,19,85H85.08V19S85.08,0,66.13,0Z"/><path class="cls-2" d="M42.56,75.61a33.22,33.22,0,0,1-33-33,33.22,33.22,0,0,1,33-33,33.21,33.21,0,0,1,33,33,33.21,33.21,0,0,1-33,33"/><path class="cls-1" d="M71.1,43c0-15.59-13-28-28.54-28a28,28,0,0,0-27.92,26.8,27.42,27.42,0,0,1,27.3-22.44c14.89,0,27.3,12.47,27.3,28.05a25.73,25.73,0,0,1-.62,6.86A33,33,0,0,0,71.1,43"/><path class="cls-1" d="M42,22A25.12,25.12,0,0,0,16.48,47.28a27.87,27.87,0,0,0,1.86,9.88A29,29,0,0,0,42.57,70.74c5.59,0,11.18-1.23,15.53-4.32,5.59-4.94,9.32-11.73,9.32-19.14A25.51,25.51,0,0,0,42,22"/></svg>