<?xml version="1.0" encoding="UTF-8"?>
<svg id="Calque_1" data-name="Calque 1" xmlns="http://www.w3.org/2000/svg" viewBox="0 0 486.06 242.68">
  <defs>
    <style>
      .cls-1 {
        fill: #f5bc00;
      }

      .cls-2 {
        fill: #0a175c;
      }
    </style>
  </defs>
  <path class="cls-1" d="M486.06,182.98V0h-182.98v7.25c14.25-.25,35.2.49,59.85,5.63,32.06,6.69,57.52,12,77.96,32.29,20.29,20.44,25.6,45.89,32.29,77.96,5.14,24.65,5.88,45.61,5.63,59.85h7.25Z"/>
  <path class="cls-2" d="M0,59.7v182.98h182.98v-7.25c-14.25.26-35.2-.48-59.85-5.63-32.06-6.69-57.52-12-77.96-32.29-20.29-20.44-25.6-45.89-32.29-77.96-5.14-24.66-5.88-45.61-5.63-59.85H0Z"/>
  <g>
    <path class="cls-2" d="M149.72,124.9c-.81-13.74-.97-19.23-.97-23.76v-39.92h33.13v116.53h-27.96l-48.65-62.71.48,25.37v37.34h-33.29V61.22h27.96l49.29,63.68Z"/>
    <path class="cls-2" d="M285.32,95.64c-8.41-7.92-18.75-10.18-26.67-10.18-19.07,0-31.19,11.32-31.19,34.26,0,15.03,7.76,33.46,31.19,33.46,6.3,0,15.84-1.13,22.47-6.14v-14.87h-29.41v-25.86h56.89v51.72c-7.6,14.87-27.48,22.95-50.1,22.95-46.06,0-63.52-30.87-63.52-61.25s20.04-61.9,63.68-61.9c16.32,0,30.39,3.39,45.9,18.91l-19.23,18.91Z"/>
    <path class="cls-2" d="M416.54,177.75h-93.25V61.22h90.99v27.64h-58.51v16.65h55.11v26.83h-55.11v17.62h60.77v27.8Z"/>
  </g>
</svg>