<?xml version="1.0" encoding="UTF-8" standalone="no"?>
<svg
   id="Calque_1"
   data-name="Calque 1"
   viewBox="0 0 85.04 85.04"
   version="1.1"
   sodipodi:docname="logo_cycle2.svg"
   inkscape:version="1.4 (86a8ad7, 2024-10-11)"
   xmlns:inkscape="http://www.inkscape.org/namespaces/inkscape"
   xmlns:sodipodi="http://sodipodi.sourceforge.net/DTD/sodipodi-0.dtd"
   xmlns="http://www.w3.org/2000/svg"
   xmlns:svg="http://www.w3.org/2000/svg">
  <sodipodi:namedview
     id="namedview4"
     pagecolor="#ffffff"
     bordercolor="#000000"
     borderopacity="0.25"
     inkscape:showpageshadow="2"
     inkscape:pageopacity="0.0"
     inkscape:pagecheckerboard="0"
     inkscape:deskcolor="#d1d1d1"
     inkscape:zoom="10.159925"
     inkscape:cx="49.360601"
     inkscape:cy="26.378147"
     inkscape:window-width="3840"
     inkscape:window-height="2054"
     inkscape:window-x="3829"
     inkscape:window-y="-11"
     inkscape:window-maximized="1"
     inkscape:current-layer="Calque_1" />
  <defs
     id="defs1">
    <style
       id="style1">.cls-1{fill:#0090d4;}.cls-2{fill:#fff;}</style>
  </defs>
  <path
     class="cls-1"
     d="M0,0V66.09S0,85,19,85H85.08V19S85.08,0,66.13,0Z"
     id="path1"
     style="fill:#1e88e5;fill-opacity:1" />
  <path
     class="cls-2"
     d="M42.56,75.61a33.22,33.22,0,0,1-33-33,33.22,33.22,0,0,1,33-33,33.21,33.21,0,0,1,33,33,33.21,33.21,0,0,1-33,33"
     id="path2" />
  <path
     class="cls-1"
     d="M71.1,43c0-15.59-13-28-28.54-28a28,28,0,0,0-27.92,26.8,27.42,27.42,0,0,1,27.3-22.44c14.89,0,27.3,12.47,27.3,28.05a25.73,25.73,0,0,1-.62,6.86A33,33,0,0,0,71.1,43"
     id="path3"
     style="fill:#1e88e5;fill-opacity:1" />
  <path
     class="cls-1"
     d="M42,22A25.12,25.12,0,0,0,16.48,47.28a27.87,27.87,0,0,0,1.86,9.88A29,29,0,0,0,42.57,70.74c5.59,0,11.18-1.23,15.53-4.32,5.59-4.94,9.32-11.73,9.32-19.14A25.51,25.51,0,0,0,42,22"
     id="path4"
     style="fill:#1e88e5;fill-opacity:1" />
</svg>
