<?xml version="1.0" encoding="UTF-8" standalone="no"?>
<svg
   id="Calque_1"
   data-name="Calque 1"
   viewBox="0 0 486.06 242.68"
   version="1.1"
   sodipodi:docname="logo_NGE_gris.svg"
   inkscape:version="1.4 (86a8ad7, 2024-10-11)"
   xmlns:inkscape="http://www.inkscape.org/namespaces/inkscape"
   xmlns:sodipodi="http://sodipodi.sourceforge.net/DTD/sodipodi-0.dtd"
   xmlns="http://www.w3.org/2000/svg"
   xmlns:svg="http://www.w3.org/2000/svg">
  <sodipodi:namedview
     id="namedview5"
     pagecolor="#ffffff"
     bordercolor="#000000"
     borderopacity="0.25"
     inkscape:showpageshadow="2"
     inkscape:pageopacity="0.0"
     inkscape:pagecheckerboard="0"
     inkscape:deskcolor="#d1d1d1"
     inkscape:zoom="3.5602441"
     inkscape:cx="199.98629"
     inkscape:cy="40.025346"
     inkscape:window-width="3840"
     inkscape:window-height="2054"
     inkscape:window-x="3829"
     inkscape:window-y="-11"
     inkscape:window-maximized="1"
     inkscape:current-layer="Calque_1" />
  <defs
     id="defs1">
    <style
       id="style1">
      .cls-1 {
        fill: #f5bc00;
      }

      .cls-2 {
        fill: #0a175c;
      }
    </style>
  </defs>
  <path
     class="cls-1"
     d="M486.06,182.98V0h-182.98v7.25c14.25-.25,35.2.49,59.85,5.63,32.06,6.69,57.52,12,77.96,32.29,20.29,20.44,25.6,45.89,32.29,77.96,5.14,24.65,5.88,45.61,5.63,59.85h7.25Z"
     id="path1"
     style="fill:#999999" />
  <path
     class="cls-2"
     d="M0,59.7v182.98h182.98v-7.25c-14.25.26-35.2-.48-59.85-5.63-32.06-6.69-57.52-12-77.96-32.29-20.29-20.44-25.6-45.89-32.29-77.96-5.14-24.66-5.88-45.61-5.63-59.85H0Z"
     id="path2"
     style="fill:#999999;fill-opacity:1" />
  <g
     id="g5"
     style="fill:#999999;fill-opacity:1">
    <path
       class="cls-2"
       d="M149.72,124.9c-.81-13.74-.97-19.23-.97-23.76v-39.92h33.13v116.53h-27.96l-48.65-62.71.48,25.37v37.34h-33.29V61.22h27.96l49.29,63.68Z"
       id="path3"
       style="fill:#999999;fill-opacity:1" />
    <path
       class="cls-2"
       d="M285.32,95.64c-8.41-7.92-18.75-10.18-26.67-10.18-19.07,0-31.19,11.32-31.19,34.26,0,15.03,7.76,33.46,31.19,33.46,6.3,0,15.84-1.13,22.47-6.14v-14.87h-29.41v-25.86h56.89v51.72c-7.6,14.87-27.48,22.95-50.1,22.95-46.06,0-63.52-30.87-63.52-61.25s20.04-61.9,63.68-61.9c16.32,0,30.39,3.39,45.9,18.91l-19.23,18.91Z"
       id="path4"
       style="fill:#999999;fill-opacity:1" />
    <path
       class="cls-2"
       d="M416.54,177.75h-93.25V61.22h90.99v27.64h-58.51v16.65h55.11v26.83h-55.11v17.62h60.77v27.8Z"
       id="path5"
       style="fill:#999999;fill-opacity:1" />
  </g>
</svg>
