<svg id="Calque_1" data-name="Calque 1" xmlns="http://www.w3.org/2000/svg" xmlns:xlink="http://www.w3.org/1999/xlink" viewBox="0 0 141.73 141.73"><defs><style>.cls-1{fill:#766068;}.cls-2{clip-path:url(#clip-path);}.cls-3{fill:#fff;}</style><clipPath id="clip-path"><circle class="cls-1" cx="70.92" cy="70.87" r="70.87"/></clipPath></defs><circle class="cls-1" cx="70.92" cy="70.87" r="70.87"/><g class="cls-2"><polygon class="cls-3" points="67.94 25.74 80.12 25.74 80.12 21.98 44.52 21.98 44.52 25.74 54.83 25.74 62.32 34.19 67.94 25.74"/><path class="cls-3" d="M138,99.39h-70L67,104.08H47.34V99.39H35.16v3.76H26.73v7.52l60.88-1s1.87-2.82,13.11-3.75c2.25-.33,23-.84,36.16-1.38Z"/><path class="cls-3" d="M74.65,40.62c.95.92,5.62,14.82,5.62,14.82s-46.79,0-46.79-.93c0-1.85,7.48-13.89,7.48-13.89s32.76-.93,33.69,0m13,18.53,7.4,5.56V79.53c-.92,0-7.4-3.7-7.4-3.7Zm-16,21.77a3.5,3.5,0,1,1,3.94-3.48,3.73,3.73,0,0,1-3.94,3.48m-26.79-1A3.55,3.55,0,1,1,48,76.37a3.33,3.33,0,0,1-3.11,3.53M98.8,69.34l5.56,2.75V82.31L98.8,80.73ZM109.92,74,115,76.8v9.68l-5.1-2Zm7.87,4.17,5.57,2.68v6.12l-5.57-.77Zm-88.25-21c-.94,2.82-2.81,12.22-1.88,22.55.94,11.29,7.5,16.93,7.5,16.93l104.36,0,2-17.87c-10.37,1.1-32.63-8.25-36.1-10.29-12.18-6.58-25.29-32-25.29-32L38.91,34.54s-8.44,18.79-9.37,22.55"/></g></svg>