<svg id="Calque_1" data-name="Calque 1" xmlns="http://www.w3.org/2000/svg" viewBox="0 0 595.68 79.2"><defs><style>.cls-1{fill:#f6c100;}.cls-2{fill:#133370;}</style></defs><path class="cls-1" d="M76.13,3.07H6.67c.25,1.44.53,2.89.84,4.37s.56,2.67.83,4c16.83,3.55,30.41,7,41.46,18S64.23,54,67.79,70.86c.27,1.31.55,2.63.83,4s.59,2.93.84,4.36h6.67Z"/><path class="cls-2" d="M68.62,74.84c-.28-1.35-.56-2.67-.83-4-16.83-3.55-30.41-7-41.46-18S11.9,28.25,8.34,11.42c-.27-1.31-.55-2.63-.83-4s-.59-2.93-.84-4.37H0V79.2H69.46C69.21,77.77,68.93,76.32,68.62,74.84Z"/><path class="cls-2" d="M172.12,78.83H148.49L130.85,54.26H123.4V78.83H102V3.12h37a35.46,35.46,0,0,1,12.81,2.15A26.66,26.66,0,0,1,161,11.05a24.21,24.21,0,0,1,5.56,8.35,26,26,0,0,1,1.89,9.76,30.42,30.42,0,0,1-.73,6.72A19.91,19.91,0,0,1,165.19,42a21.72,21.72,0,0,1-4.89,5.41,33.9,33.9,0,0,1-7.92,4.62l19.74,25.52ZM123.4,20.24V38.4h15.75q4.31,0,6.24-2.62a10.12,10.12,0,0,0,2-6.2,11.52,11.52,0,0,0-.53-3.46,9.15,9.15,0,0,0-1.57-3,7.89,7.89,0,0,0-2.63-2.1,8.16,8.16,0,0,0-3.67-.78Z"/><path class="cls-2" d="M242.26,78.83H181.67V3.12h59.12v18h-38V31.89h35.8V49.32h-35.8V60.77h39.48Z"/><path class="cls-2" d="M297.59,79.14h-20.9l-31.39-76h23.62l8.72,22.68,9.45,28,9.66-28,8.61-22.68h23.73Z"/><path class="cls-2" d="M381.8,66.44H347.89L343,78.83H320.27L354.19,3.12h21.62l33.82,75.71h-22.9ZM364.89,24.33l-9.76,24.15h19.43Z"/><path class="cls-2" d="M479,33.68l-19.43,23h-3.77l-18.9-22.78V78.83H415.72V3.12h22.36L458,28.74,477.88,3.12h22.36V78.83H479Z"/><path class="cls-2" d="M567.86,66.44H533.94L529,78.83H506.33L540.24,3.12h21.63l33.81,75.71H572.79ZM551,24.33l-9.76,24.15h19.42Z"/></svg>