<svg id="Calque_1" data-name="Calque 1" xmlns="http://www.w3.org/2000/svg" viewBox="0 0 486.06 242.68"><defs><style>.cls-1{fill:#fff;stroke:#000;stroke-miterlimit:10;}.cls-2{fill:#f6c100;}.cls-3{fill:#133370;}</style></defs><rect class="cls-1" width="486.06" height="242.68"/><path class="cls-2" d="M486.06,183V0h-183V7.25a270.2,270.2,0,0,1,59.86,5.63c32.06,6.69,57.52,12,78,32.29,20.28,20.44,25.59,45.89,32.28,78A268.9,268.9,0,0,1,478.8,183Z"/><path class="cls-3" d="M0,59.7v183H183v-7.26a269.34,269.34,0,0,1-59.85-5.62c-32.07-6.69-57.52-12-78-32.29-20.28-20.44-25.6-45.89-32.29-78A270.07,270.07,0,0,1,7.25,59.7Z"/><path class="cls-3" d="M149.72,124.9c-.8-13.74-1-19.23-1-23.76V61.22h33.13V177.75H153.93L105.28,115l.48,25.37v37.34H72.47V61.22h28Z"/><path class="cls-3" d="M285.32,95.64a38.69,38.69,0,0,0-26.67-10.18c-19.07,0-31.19,11.32-31.19,34.26,0,15,7.76,33.46,31.19,33.46,6.3,0,15.84-1.13,22.46-6.14V132.17H251.7V106.31h56.89V158C301,172.9,281.11,181,258.49,181,212.43,181,195,150.11,195,119.72c0-30.7,20-61.9,63.68-61.9,16.32,0,30.38,3.4,45.9,18.91Z"/><path class="cls-3" d="M416.54,177.75H323.29V61.22h91V88.85h-58.5V105.5h55.11v26.83H355.78V150h60.76Z"/></svg>